M48
;Layer_Color=6321
;FILE_FORMAT=2:5
INCH,LZ
;TYPE=PLATED
T1F00S00C0.02800
T2F00S00C0.02953
T3F00S00C0.03000
T4F00S00C0.03800
T5F00S00C0.03937
T6F00S00C0.04000
T7F00S00C0.04724
%
T01
X0426Y02875
X04687Y02469
X01708Y02565
X015Y025
T02
X0488Y03555
Y039487
X05485Y038887
Y03495
X0607Y035113
Y03905
T03
X0402Y0133
Y0143
Y0153
X06635Y02205
Y02305
X0402Y0233
Y0243
Y0223
Y0213
Y0203
Y0193
Y0183
Y0173
Y0163
X0426Y04355
X0436Y0435
X048Y0438
X049Y04375
X0538Y04335
X0548Y0433
X0598Y04335
X0608Y0433
X06635Y03375
Y03275
T04
X06635Y02405
Y03475
T05
X01325Y02775
Y02875
Y02975
Y03075
Y03175
Y03275
Y03375
Y03475
Y03575
Y03675
Y03835
Y03935
Y04035
Y04135
Y04235
Y04335
Y04435
Y04535
X03225
Y04435
Y04335
Y04235
Y04135
Y04035
Y03835
Y03735
Y03635
Y03535
Y03435
Y03335
Y03235
Y03135
T06
X06085Y01225
Y01325
Y01425
T07
X0241941Y0171
X025572
X02695
M30
